<?xml version="1.0" standalone="no"?><!DOCTYPE svg PUBLIC "-//W3C//DTD SVG 1.1//EN" "http://www.w3.org/Graphics/SVG/1.1/DTD/svg11.dtd"><svg t="1733336430825" class="icon" viewBox="0 0 1024 1024" version="1.1" xmlns="http://www.w3.org/2000/svg" p-id="17501" xmlns:xlink="http://www.w3.org/1999/xlink" width="200" height="200"><path d="M363.594203 930.133333c-34.133333-2.968116-73.089855-12.243478-100.915942-24.486956-10.017391-4.081159-17.808696-8.162319-17.808696-8.533334 0-0.742029 16.695652-0.742029 37.101449 0 185.878261 7.42029 330.202899-96.834783 330.202899-238.562318 0-40.069565-9.646377-64.556522-41.182609-107.594203-27.084058-36.730435-70.492754-69.750725-121.692753-92.753623-40.44058-18.17971-119.837681-37.843478-182.168116-45.263769-27.455072-3.33913-50.828986-6.678261-51.571015-7.049275-3.33913-2.968116 142.84058-287.907246 152.486957-297.182609l10.75942-10.388405 182.539131-2.226087c171.037681-1.855072 184.023188-2.597101 205.542029-9.646377 35.988406-11.872464 36.35942-7.791304 5.936231 51.571014-20.405797 39.698551-27.826087 50.457971-38.214492 56.765218-12.243478 7.049275-20.776812 7.42029-148.405797 9.275362-123.547826 1.855072-136.162319 2.597101-145.437682 8.533333-12.985507 8.904348-57.507246 94.608696-50.457971 97.205797 2.597101 0.742029 25.6 5.936232 51.2 11.130435 148.034783 30.794203 237.449275 88.672464 285.68116 184.394203 24.857971 49.344928 31.165217 80.510145 28.568116 138.017391-2.226087 46.747826-8.533333 74.202899-24.857971 106.110145-45.634783 89.785507-128.371014 150.26087-239.304348 174.376812-28.568116 6.307246-92.753623 9.646377-128 6.307246z" fill="#ffffff" p-id="17502"></path></svg>